<svg xmlns="http://www.w3.org/2000/svg" version="1.1" xmlns:xlink="http://www.w3.org/1999/xlink" width="1000" height="1000"><style>
    #light-icon {
      display: inline;
    }
    #dark-icon {
      display: none;
    }

    @media (prefers-color-scheme: dark) {
      #light-icon {
        display: none;
      }
      #dark-icon {
        display: inline;
      }
    }
  </style><g id="light-icon"><svg xmlns="http://www.w3.org/2000/svg" version="1.1" xmlns:xlink="http://www.w3.org/1999/xlink" width="1000" height="1000"><g><g transform="matrix(1.3020833333333333,0,0,1.3020833333333333,42.86458333333337,0)"><svg xmlns="http://www.w3.org/2000/svg" version="1.1" id="Livello_1" viewBox="0 0 702.16 768" width="702.16" height="768"><defs>
    <style>
      .st0 {
        fill: #a65d50;
      }

      .st1 {
        fill: #dbb57d;
      }
    </style>
  </defs><path class="st0" d="M673.3,251.36c-13.32-79.58-63.35-154.51-133.87-200.47-8.39-5.4-33.16-19.26-51.07-28.86-5.79-6.38-11.92-12.51-18.6-17.84-19.4-14.88-42.14,13.39-23.27,29.09,3.38,2.7,7.45,4.04,11.47,4.08,9.22.08,19.16-.77,29.19-.99,16.95,9.18,37.86,20.93,45.1,25.59,67.45,43.95,115.31,115.56,128.04,191.63,11.66,65.16-3.4,132.06-38.3,185.94-5.33,7.97-12.49,15.4-19.39,23.73-3.97,4.38-8.63,8.32-13.07,12.67-2.26,2.13-4.55,4.28-6.86,6.45-2.52,1.92-5.07,3.86-7.63,5.82-5.26,3.73-10.05,8.33-15.89,11.52-5.67,3.44-11.42,6.93-17.2,10.44-6.13,2.87-12.3,5.77-18.5,8.67-6.16,3-12.89,4.63-19.32,7.03-26.19,8.28-53.82,11.27-79.47,9.54-12.69-1.94-25.12-2.99-36.35-6.75-11.56-2.51-21.69-7.25-31.23-11.11-18.6-8.79-33.23-18.16-43.25-25.02-4.82-3.63-8.61-6.49-11.19-8.44-2.59-1.94-3.83-3.15-3.83-3.15l-3.41-2.93c-56.45-47.32-89.32-121.44-85.62-194.89,1.68-36.62,12.6-72.83,32.26-103.69,1.26-1.99,2.55-3.96,3.87-5.91,6.81-8.18,14.17-15.93,22.08-23.1,46.45-42.12,102.51-58.3,158.06-45.53,70.03,13.97,142.08,76.16,141.43,155.94-1.97,76.38-54.79,122.05-103.04,132.16-11.11,2.33-21.96,2.97-32.43,2.05-10.59-1.65-21.37-4.65-31.53-9.39-12.27-5.55-23.75-12.84-33.01-21.41-11.56-11.43-21.59-25.83-29.65-42.99l-.26.12c-.74-2.31-1.33-4.48-1.76-6.38-1.25-5.63-1.61-8.99-1.61-8.99l-.25-2.2c-4.69-36.17,13.87-74.2,46.37-87.71,4.62-1.91,9.45-3.35,14.39-4.35,11.93-.75,24.61,1.46,36.8,6.75,23.38,10.13,38.8,29,41.26,50.43,1.38,12.98-3.77,27.55-13.44,38.03-6.86,7.43-19.03,16.1-38.94,16.81-8.47-1.27-16.38-4.83-21.99-8.54-6.31-4.2-10.14-7.68-10.14-7.68l-.66-.54c-2.33-2.26-5.41-4.8-7.03-6.89-2.06-2.64-3.92-5.54-5.66-8.46-3.37-5.89-5.94-12.19-6.93-18.43-.51-3.11-.57-6.17-.16-9.1,3.67-8.6,10.81-15.88,19.87-20.63,4.86-2.75.58-10.13-4.22-7.3-28.08,14.58-33.27,46.85-16.25,70.68,11.67,19.77,29.74,28.94,48.25,29.87v.25c.78.02,1.55.03,2.32.03,26.19,0,42.29-11.39,51.26-21.11,12.17-13.19,18.62-31.73,16.85-48.43-2.11-18.39-11.8-35.11-26.96-47.61l-2.78-2.71-3.85-2.77-4.94-3.51c-1.73-1.05-3.58-1.89-5.39-2.86l-5.54-2.83-5.88-2.1c-8.93-3.41-18.6-4.8-28.49-5.4-5.18-.06-10.49.24-15.79.8l-7.9,1.53-4.01.8-3.84,1.35c-5.15,1.74-10.39,3.55-15.13,6.48-2.42,1.36-4.98,2.6-7.33,4.15l-6.7,5.18c-2.79,2.05-5.54,4.2-7.77,6.82-7.67,7.41-13.46,16.97-17.32,27.05l-4.28,13.48c-1.2,4.68-1.98,9.48-2.49,14.17-.95,9.42-.89,18.78.21,28.12,1.09,9.33,3.14,18.66,6.93,27.89.89,2.3,2.07,4.62,3.2,6.86l3.56,5.94c2.43,3.92,4.59,8.02,7.56,11.59,3.93,5.33,8.21,10.38,13.32,14.49,2.07,1.75,4.02,3.6,6.16,5.22,9.48,6.56,19.24,12.36,29.65,16.45l7.98,3.13c2.7.9,5.48,1.6,8.19,2.39,5.36,1.74,10.98,2.56,16.43,3.55.23.04.47.06.7.1,8.74,2.23,17.99,3.47,27.76,3.47,8.31,0,16.99-.88,26.02-2.78,53.17-11.14,111.38-61.19,113.53-144.86.24-29.99-8.86-57.65-23.98-81.64-12.99-22.71-31.15-42.64-52.41-57.75-31.82-23.47-68.27-33.97-104.84-33.94-49.8-3.05-98.75,15.19-140.33,52.91-18.38,16.66-34.03,36.21-46.53,57.42-17.38,28.38-27.8,59.13-31.92,90.39-.04.32-.09.64-.13.97-.08.65-.16,1.3-.24,1.95-1.23,9.75-1.8,19.49-1.68,29.17,0,.72,0,1.44.02,2.16,0,.28,0,.56.02.85,1.34,87.31,49.5,173.21,130.21,217.65,25.16,14.58,52.89,22.75,81.28,25.46.25.06.51.12.76.18,8.71,1.52,17.62,2.08,26.41,2.53,11.15.26,22.29-1.34,33.2-2.05,10.82-2.34,21.66-3.78,32.02-7.02,10.61-3.6,21.31-6.4,31.16-11.47l14.88-6.87,13.99-8.38c6.96-4.12,13.57-8.69,19.91-13.56,84.13-58.49,129.27-165.7,110.84-268.67Z"></path><path class="st1" d="M702.16,426.49l-.07.28c.02-.12.04-.23.06-.35-57.18,187.14-304.01,276.14-456.34,145.27-6.31-5.42-12.64-10.81-19.01-16.15-149.3-125.21-144.28-391.21,39.25-482.45,0,0-90.31,15.06-166.2,84.55h0c-32.25,28.87-58.64,64.53-74.4,104.45-44.19,111.9-30.27,240.8,37.24,344.81l.26.38c72.02,103.12,180.17,160.72,294.5,160.72,26.52,0,53.39-3.1,80.2-9.45,100.36-23.78,177.27-82.97,220.47-171.02,44.81-81.25,44.03-161.03,44.03-161.03Z"></path></svg></g></g></svg></g><g id="dark-icon"><svg xmlns="http://www.w3.org/2000/svg" version="1.1" xmlns:xlink="http://www.w3.org/1999/xlink" width="1000" height="1000"><g><g transform="matrix(1.3020833333333333,0,0,1.3020833333333333,42.86458333333337,0)"><svg xmlns="http://www.w3.org/2000/svg" version="1.1" id="Livello_1" viewBox="0 0 702.16 768" width="702.16" height="768"><defs>
    <style>
      .st0 {
        fill: #dbb57d;
      }

      .st1 {
        fill: #f4efea;
      }
    </style>
  </defs><path class="st1" d="M673.3,251.36c-13.32-79.58-63.35-154.51-133.87-200.47-8.39-5.4-33.16-19.26-51.07-28.86-5.79-6.38-11.92-12.51-18.6-17.84-19.4-14.88-42.14,13.39-23.27,29.09,3.38,2.7,7.45,4.04,11.47,4.08,9.22.08,19.16-.77,29.19-.99,16.95,9.18,37.86,20.93,45.1,25.59,67.45,43.95,115.31,115.56,128.04,191.63,11.66,65.16-3.4,132.06-38.3,185.94-5.33,7.97-12.49,15.4-19.39,23.73-3.97,4.38-8.63,8.32-13.07,12.67-2.26,2.13-4.55,4.28-6.86,6.45-2.52,1.92-5.07,3.86-7.63,5.82-5.26,3.73-10.05,8.33-15.89,11.52-5.67,3.44-11.42,6.93-17.2,10.44-6.13,2.87-12.3,5.77-18.5,8.67-6.16,3-12.89,4.63-19.32,7.03-26.19,8.28-53.82,11.27-79.47,9.54-12.69-1.94-25.12-2.99-36.35-6.75-11.56-2.51-21.69-7.25-31.23-11.11-18.6-8.79-33.23-18.16-43.25-25.02-4.82-3.63-8.61-6.49-11.19-8.44-2.59-1.94-3.83-3.15-3.83-3.15l-3.41-2.93c-56.45-47.32-89.32-121.44-85.62-194.89,1.68-36.62,12.6-72.83,32.26-103.69,1.26-1.99,2.55-3.96,3.87-5.91,6.81-8.18,14.17-15.93,22.08-23.1,46.45-42.12,102.51-58.3,158.06-45.53,70.03,13.97,142.08,76.16,141.43,155.94-1.97,76.38-54.79,122.05-103.04,132.16-11.11,2.33-21.96,2.97-32.43,2.05-10.59-1.65-21.37-4.65-31.53-9.39-12.27-5.55-23.75-12.84-33.01-21.41-11.56-11.43-21.59-25.83-29.65-42.99l-.26.12c-.74-2.31-1.33-4.48-1.76-6.38-1.25-5.63-1.61-8.99-1.61-8.99l-.25-2.2c-4.69-36.17,13.87-74.2,46.37-87.71,4.62-1.91,9.45-3.35,14.39-4.35,11.93-.75,24.61,1.46,36.8,6.75,23.38,10.13,38.8,29,41.26,50.43,1.38,12.98-3.77,27.55-13.44,38.03-6.86,7.43-19.03,16.1-38.94,16.81-8.47-1.27-16.38-4.83-21.99-8.54-6.31-4.2-10.14-7.68-10.14-7.68l-.66-.54c-2.33-2.26-5.41-4.8-7.03-6.89-2.06-2.64-3.92-5.54-5.66-8.46-3.37-5.89-5.94-12.19-6.93-18.43-.51-3.11-.57-6.17-.16-9.1,3.67-8.6,10.81-15.88,19.87-20.63,4.86-2.75.58-10.13-4.22-7.3-28.08,14.58-33.27,46.85-16.25,70.68,11.67,19.77,29.74,28.94,48.25,29.87v.25c.78.02,1.55.03,2.32.03,26.19,0,42.29-11.39,51.26-21.11,12.17-13.19,18.62-31.73,16.85-48.43-2.11-18.39-11.8-35.11-26.96-47.61l-2.78-2.71-3.85-2.77-4.94-3.51c-1.73-1.05-3.58-1.89-5.39-2.86l-5.54-2.83-5.88-2.1c-8.93-3.41-18.6-4.8-28.49-5.4-5.18-.06-10.49.24-15.79.8l-7.9,1.53-4.01.8-3.84,1.35c-5.15,1.74-10.39,3.55-15.13,6.48-2.42,1.36-4.98,2.6-7.33,4.15l-6.7,5.18c-2.79,2.05-5.54,4.2-7.77,6.82-7.67,7.41-13.46,16.97-17.32,27.05l-4.28,13.48c-1.2,4.68-1.98,9.48-2.49,14.17-.95,9.42-.89,18.78.21,28.12,1.09,9.33,3.14,18.66,6.93,27.89.89,2.3,2.07,4.62,3.2,6.86l3.56,5.94c2.43,3.92,4.59,8.02,7.56,11.59,3.93,5.33,8.21,10.38,13.32,14.49,2.07,1.75,4.02,3.6,6.16,5.22,9.48,6.56,19.24,12.36,29.65,16.45l7.98,3.13c2.7.9,5.48,1.6,8.19,2.39,5.36,1.74,10.98,2.56,16.43,3.55.23.04.47.06.7.1,8.74,2.23,17.99,3.47,27.76,3.47,8.31,0,16.99-.88,26.02-2.78,53.17-11.14,111.38-61.19,113.53-144.86.24-29.99-8.86-57.65-23.98-81.64-12.99-22.71-31.15-42.64-52.41-57.75-31.82-23.47-68.27-33.97-104.84-33.94-49.8-3.05-98.75,15.19-140.33,52.91-18.38,16.66-34.03,36.21-46.53,57.42-17.38,28.38-27.8,59.13-31.92,90.39-.04.32-.09.64-.13.97-.08.65-.16,1.3-.24,1.95-1.23,9.75-1.8,19.49-1.68,29.17,0,.72,0,1.44.02,2.16,0,.28,0,.56.02.85,1.34,87.31,49.5,173.21,130.21,217.65,25.16,14.58,52.89,22.75,81.28,25.46.25.06.51.12.76.18,8.71,1.52,17.62,2.08,26.41,2.53,11.15.26,22.29-1.34,33.2-2.05,10.82-2.34,21.66-3.78,32.02-7.02,10.61-3.6,21.31-6.4,31.16-11.47l14.88-6.87,13.99-8.38c6.96-4.12,13.57-8.69,19.91-13.56,84.13-58.49,129.27-165.7,110.84-268.67Z"></path><path class="st0" d="M702.16,426.49l-.07.28c.02-.12.04-.23.06-.35-57.18,187.14-304.01,276.14-456.34,145.27-6.31-5.42-12.64-10.81-19.01-16.15-149.3-125.21-144.28-391.21,39.25-482.45,0,0-90.31,15.06-166.2,84.55h0c-32.25,28.87-58.64,64.53-74.4,104.45-44.19,111.9-30.27,240.8,37.24,344.81l.26.38c72.02,103.12,180.17,160.72,294.5,160.72,26.52,0,53.39-3.1,80.2-9.45,100.36-23.78,177.27-82.97,220.47-171.02,44.81-81.25,44.03-161.03,44.03-161.03Z"></path></svg></g></g></svg></g></svg>