<?xml version="1.0" encoding="UTF-8"?>
<svg id="Livello_1" xmlns="http://www.w3.org/2000/svg" version="1.1" viewBox="0 0 1200 206.04">
  <!-- Generator: Adobe Illustrator 30.1.0, SVG Export Plug-In . SVG Version: 2.1.1 Build 136)  -->
  <defs>
    <style>
      .st0 {
        fill: #dbb57d;
      }

      .st1 {
        fill: #f4efea;
      }
    </style>
  </defs>
  <path class="st1" d="M180.63,67.43c-3.57-21.35-17-41.45-35.91-53.78-2.25-1.45-8.9-5.17-13.7-7.74-1.55-1.71-3.2-3.36-4.99-4.78-5.2-3.99-11.31,3.59-6.24,7.8.91.73,2,1.08,3.08,1.09,2.47.02,5.14-.21,7.83-.27,4.55,2.46,10.16,5.61,12.1,6.87,18.1,11.79,30.93,31,34.35,51.41,3.13,17.48-.91,35.43-10.27,49.88-1.43,2.14-3.35,4.13-5.2,6.37-1.07,1.17-2.32,2.23-3.51,3.4-.61.57-1.22,1.15-1.84,1.73-.68.52-1.36,1.04-2.05,1.56-1.41,1-2.7,2.23-4.26,3.09-1.52.92-3.06,1.86-4.62,2.8-1.64.77-3.3,1.55-4.96,2.33-1.65.8-3.46,1.24-5.18,1.89-7.03,2.22-14.44,3.02-21.32,2.56-3.4-.52-6.74-.8-9.75-1.81-3.1-.67-5.82-1.95-8.38-2.98-4.99-2.36-8.91-4.87-11.6-6.71-1.29-.98-2.31-1.74-3-2.26-.7-.52-1.03-.84-1.03-.84l-.91-.79c-15.14-12.69-23.96-32.58-22.97-52.28.45-9.82,3.38-19.54,8.65-27.82.34-.53.68-1.06,1.04-1.58,1.83-2.2,3.8-4.27,5.92-6.2,12.46-11.3,27.5-15.64,42.4-12.21,18.79,3.75,38.12,20.43,37.94,41.83-.53,20.49-14.7,32.74-27.64,35.46-2.98.63-5.89.8-8.7.55-2.84-.44-5.73-1.25-8.46-2.52-3.29-1.49-6.37-3.44-8.86-5.74-3.1-3.07-5.79-6.93-7.95-11.53l-.07.03c-.2-.62-.36-1.2-.47-1.71-.34-1.51-.43-2.41-.43-2.41l-.07-.59c-1.26-9.7,3.72-19.91,12.44-23.53,1.24-.51,2.54-.9,3.86-1.17,3.2-.2,6.6.39,9.87,1.81,6.27,2.72,10.41,7.78,11.07,13.53.37,3.48-1.01,7.39-3.6,10.2-1.84,1.99-5.11,4.32-10.45,4.51-2.27-.34-4.39-1.29-5.9-2.29-1.69-1.13-2.72-2.06-2.72-2.06l-.18-.14c-.63-.61-1.45-1.29-1.89-1.85-.55-.71-1.05-1.49-1.52-2.27-.9-1.58-1.59-3.27-1.86-4.95-.14-.83-.15-1.65-.04-2.44.98-2.31,2.9-4.26,5.33-5.53,1.3-.74.16-2.72-1.13-1.96-7.53,3.91-8.93,12.57-4.36,18.96,3.13,5.3,7.98,7.76,12.94,8.01v.07c.21,0,.42,0,.62,0,7.03,0,11.35-3.06,13.75-5.66,3.26-3.54,5-8.51,4.52-12.99-.57-4.93-3.16-9.42-7.23-12.77l-.75-.73-1.03-.74-1.32-.94c-.46-.28-.96-.51-1.45-.77l-1.49-.76-1.58-.56c-2.4-.91-4.99-1.29-7.64-1.45-1.39-.02-2.81.06-4.24.21l-2.12.41-1.07.21-1.03.36c-1.38.47-2.79.95-4.06,1.74-.65.37-1.34.7-1.97,1.11l-1.8,1.39c-.75.55-1.49,1.13-2.08,1.83-2.06,1.99-3.61,4.55-4.65,7.26l-1.15,3.62c-.32,1.25-.53,2.54-.67,3.8-.25,2.53-.24,5.04.06,7.54.29,2.5.84,5.01,1.86,7.48.24.62.55,1.24.86,1.84l.95,1.59c.65,1.05,1.23,2.15,2.03,3.11,1.05,1.43,2.2,2.78,3.57,3.89.55.47,1.08.97,1.65,1.4,2.54,1.76,5.16,3.32,7.95,4.41l2.14.84c.73.24,1.47.43,2.2.64,1.44.47,2.94.69,4.41.95.06.01.12.02.19.03,2.35.6,4.83.93,7.45.93,2.23,0,4.56-.24,6.98-.75,14.26-2.99,29.88-16.42,30.46-38.86.07-8.04-2.38-15.47-6.43-21.9-3.49-6.09-8.36-11.44-14.06-15.49-8.54-6.3-18.31-9.11-28.13-9.1-13.36-.82-26.49,4.08-37.65,14.19-4.93,4.47-9.13,9.71-12.48,15.4-4.66,7.61-7.46,15.86-8.56,24.25-.01.09-.02.17-.04.26-.02.17-.04.35-.06.52-.33,2.61-.48,5.23-.45,7.83,0,.19,0,.39,0,.58,0,.08,0,.15,0,.23.36,23.42,13.28,46.47,34.93,58.39,6.75,3.91,14.19,6.1,21.81,6.83.07.02.14.03.2.05,2.34.41,4.73.56,7.09.68,2.99.07,5.98-.36,8.91-.55,2.9-.63,5.81-1.02,8.59-1.88,2.85-.97,5.72-1.72,8.36-3.08l3.99-1.84,3.75-2.25c1.87-1.1,3.64-2.33,5.34-3.64,22.57-15.69,34.68-44.45,29.74-72.08Z"/>
  <path class="st0" d="M188.37,114.42l-.02.07s.01-.06.02-.09c-15.34,50.21-81.56,74.08-122.43,38.97-1.69-1.45-3.39-2.9-5.1-4.33C20.79,115.45,22.14,44.09,71.38,19.61c0,0-24.23,4.04-44.59,22.68h0c-8.65,7.75-15.73,17.31-19.96,28.02-11.85,30.02-8.12,64.6,9.99,92.5l.07.1c19.32,27.66,48.33,43.12,79.01,43.12,7.11,0,14.32-.83,21.52-2.54,26.93-6.38,47.56-22.26,59.15-45.88,12.02-21.8,11.81-43.2,11.81-43.2Z"/>
  <path class="st1" d="M240.03,70.95v94.82l14.31,5.37v2.68h-33.99v-2.68l14.31-5.37V53.95l-10.73-2.68v-2.68h22.36c6.2,0,11.12,1.28,14.76,3.85,3.64,2.57,6.77,6.35,9.39,11.36l39,74.6,29.88-74.6c2.03-5.25,4.77-9.09,8.23-11.54,3.46-2.44,8.77-3.67,15.92-3.67h18.79v2.68l-10.73,2.68v114.5l10.73,2.68v2.68h-50.99v-2.68l10.73-2.68v-97.5l-42.04,104.66h-5.37l-54.57-104.66Z"/>
  <path class="st1" d="M408.74,169.7c-5.73-4.53-8.59-10.32-8.59-17.35,0-4.65,1.01-9.24,3.04-13.78.83-2.15,1.91-4.11,3.22-5.9,4.89-1.19,10.2-2.26,15.92-3.22,12.88-2.15,24.27-3.46,34.17-3.94v-5.37c0-13.24-1.61-22.36-4.83-27.37-3.22-5.01-8.17-7.51-14.85-7.51-2.5,0-4.65.3-6.44.89l-2.5.89v26.84l-2.33.54c-1.91.24-3.52.36-4.83.36-4.06,0-7.31-1.22-9.75-3.67-2.45-2.44-3.67-5.7-3.67-9.75,0-5.48,2.77-10.14,8.32-13.95,5.54-3.82,13.8-5.73,24.78-5.73,9.3,0,17.32,1.64,24.06,4.92,6.74,3.28,11.87,7.81,15.39,13.6,3.52,5.79,5.28,12.43,5.28,19.95v48.3l10.73,2.68v2.68h-16.1c-7.16,0-12.7-2.21-16.64-6.62-1.67-1.79-2.98-4.05-3.94-6.8-1.67,2.98-3.64,5.66-5.9,8.05-5.37,5.37-12.05,8.05-20.04,8.05-10.62,0-18.78-2.27-24.51-6.8ZM452.39,163.08c1.31-1.79,2.68-4.17,4.12-7.16v-25.94c-5.49,0-10.73.3-15.74.9-3.7.48-6.2.78-7.51.89-.6,1.31-1.19,3.1-1.79,5.37-1.19,4.53-1.79,9.01-1.79,13.42,0,6.68,1.01,11.63,3.04,14.85,2.03,3.22,4.59,4.83,7.69,4.83,4.41,0,8.41-2.38,11.99-7.16Z"/>
  <path class="st1" d="M506.59,171.13l10.73-2.68v-78.72l-10.73-2.68v-2.68h16.1c7.04,0,12.58,2.27,16.64,6.8,1.55,1.79,2.86,4,3.94,6.62,1.79-2.62,3.99-5.01,6.62-7.16,5.96-4.77,12.64-7.16,20.04-7.16,6.32,0,11.06,1.46,14.22,4.38,3.16,2.92,4.74,7.13,4.74,12.61,0,4.06-1.22,7.31-3.67,9.75-2.45,2.45-5.7,3.67-9.75,3.67-1.67,0-3.34-.12-5.01-.36l-2.15-.54v-25.05c-6.08,0-11.63,2.39-16.64,7.16-2.39,2.39-4.29,4.77-5.73,7.16v66.19l10.73,2.68v2.68h-50.09v-2.68Z"/>
  <path class="st1" d="M624.76,172.21c-5.79-2.86-10.23-6.8-13.33-11.81-3.1-5.01-4.65-10.67-4.65-17v-54.57h-12.52v-4.47h12.52v-8.95c0-10.73,5.37-16.1,16.1-16.1h12.52v25.05h25.05v4.47h-25.05v54.57c0,10.97,1.13,18.49,3.4,22.54,2.26,4.06,5.6,6.08,10.02,6.08s8.05-2.08,11.27-6.26c3.22-4.17,4.83-9.84,4.83-16.99h4.47c0,8.83-2.21,15.65-6.62,20.48-4.41,4.83-10.26,7.25-17.53,7.25-7.87,0-14.7-1.43-20.48-4.29Z"/>
  <path class="st1" d="M687.82,169.7c-5.73-4.53-8.59-10.32-8.59-17.35,0-4.65,1.01-9.24,3.04-13.78.83-2.15,1.91-4.11,3.22-5.9,4.89-1.19,10.2-2.26,15.92-3.22,12.88-2.15,24.27-3.46,34.17-3.94v-5.37c0-13.24-1.61-22.36-4.83-27.37-3.22-5.01-8.17-7.51-14.85-7.51-2.5,0-4.65.3-6.44.89l-2.5.89v26.84l-2.33.54c-1.91.24-3.52.36-4.83.36-4.06,0-7.31-1.22-9.75-3.67-2.45-2.44-3.67-5.7-3.67-9.75,0-5.48,2.77-10.14,8.32-13.95,5.54-3.82,13.8-5.73,24.78-5.73,9.3,0,17.32,1.64,24.06,4.92,6.74,3.28,11.87,7.81,15.39,13.6,3.52,5.79,5.28,12.43,5.28,19.95v48.3l10.73,2.68v2.68h-16.1c-7.16,0-12.7-2.21-16.64-6.62-1.67-1.79-2.98-4.05-3.94-6.8-1.67,2.98-3.64,5.66-5.9,8.05-5.37,5.37-12.05,8.05-20.04,8.05-10.62,0-18.78-2.27-24.51-6.8ZM731.47,163.08c1.31-1.79,2.68-4.17,4.12-7.16v-25.94c-5.49,0-10.73.3-15.74.9-3.7.48-6.2.78-7.51.89-.6,1.31-1.19,3.1-1.79,5.37-1.19,4.53-1.79,9.01-1.79,13.42,0,6.68,1.01,11.63,3.04,14.85,2.03,3.22,4.59,4.83,7.69,4.83,4.41,0,8.41-2.38,11.99-7.16Z"/>
  <g>
    <path class="st1" d="M822.97,169.35l66.37-116.29h-46.69c0,7.28-1.97,14.25-5.9,20.93-1.67,2.75-3.58,5.01-5.73,6.8h-5.37v-32.2h96.61v4.47l-66.19,116.29h48.3c0-7.51,1.91-14.49,5.73-20.93,1.67-2.74,3.64-5.01,5.9-6.8h5.37v32.2h-98.4v-4.47Z"/>
    <path class="st1" d="M949.19,163.89c-8.41-8.41-12.61-20.01-12.61-34.8s4.2-26.39,12.61-34.8c8.41-8.41,20.01-12.61,34.8-12.61s26.39,4.2,34.8,12.61c8.41,8.41,12.61,20.01,12.61,34.8s-4.2,26.39-12.61,34.8c-8.41,8.41-20.01,12.61-34.8,12.61s-26.39-4.2-34.8-12.61ZM996.06,162.9c3.28-6.68,4.92-17.95,4.92-33.81s-1.64-27.13-4.92-33.81c-3.28-6.68-7.31-10.02-12.08-10.02s-8.8,3.34-12.08,10.02c-3.28,6.68-4.92,17.95-4.92,33.81s1.64,27.13,4.92,33.81c3.28,6.68,7.3,10.02,12.08,10.02s8.8-3.34,12.08-10.02Z"/>
    <path class="st1" d="M1045.7,171.13l10.73-2.68V53.95l-10.73-2.68v-2.68h23.26c10.73,0,16.1,5.37,16.1,16.1v103.76l10.73,2.68v2.68h-50.09v-2.68Z"/>
    <path class="st1" d="M1116.91,169.7c-5.73-4.53-8.59-10.32-8.59-17.35,0-4.65,1.01-9.24,3.04-13.78.83-2.15,1.91-4.11,3.22-5.9,4.89-1.19,10.2-2.26,15.92-3.22,12.88-2.15,24.27-3.46,34.17-3.94v-5.37c0-13.24-1.61-22.36-4.83-27.37-3.22-5.01-8.17-7.51-14.85-7.51-2.5,0-4.65.3-6.44.89l-2.5.89v26.84l-2.33.54c-1.91.24-3.52.36-4.83.36-4.06,0-7.31-1.22-9.75-3.67-2.45-2.44-3.67-5.7-3.67-9.75,0-5.48,2.77-10.14,8.32-13.95,5.54-3.82,13.8-5.73,24.78-5.73,9.3,0,17.32,1.64,24.06,4.92,6.74,3.28,11.87,7.81,15.39,13.6,3.52,5.79,5.28,12.43,5.28,19.95v48.3l10.73,2.68v2.68h-16.1c-7.16,0-12.7-2.21-16.64-6.62-1.67-1.79-2.98-4.05-3.94-6.8-1.67,2.98-3.64,5.66-5.9,8.05-5.37,5.37-12.05,8.05-20.04,8.05-10.62,0-18.78-2.27-24.51-6.8ZM1160.56,163.08c1.31-1.79,2.68-4.17,4.12-7.16v-25.94c-5.49,0-10.73.3-15.74.9-3.7.48-6.2.78-7.51.89-.6,1.31-1.19,3.1-1.79,5.37-1.19,4.53-1.79,9.01-1.79,13.42,0,6.68,1.01,11.63,3.04,14.85,2.03,3.22,4.59,4.83,7.69,4.83,4.41,0,8.41-2.38,11.99-7.16Z"/>
  </g>
</svg>