<?xml version="1.0" encoding="UTF-8"?>
<svg id="Livello_1" xmlns="http://www.w3.org/2000/svg" version="1.1" viewBox="0 0 966.45 165.38">
  <!-- Generator: Adobe Illustrator 30.1.0, SVG Export Plug-In . SVG Version: 2.1.1 Build 136)  -->
  <defs>
    <style>
      .st0 {
        fill: #a65d50;
      }

      .st1 {
        fill: #dbb57d;
      }
    </style>
  </defs>
  <path class="st0" d="M144.99,54.13c-2.87-17.14-13.64-33.27-28.83-43.17-1.81-1.16-7.14-4.15-11-6.21-1.25-1.37-2.57-2.69-4.01-3.84-4.18-3.21-9.07,2.88-5.01,6.26.73.58,1.61.87,2.47.88,1.98.02,4.13-.17,6.29-.21,3.65,1.98,8.15,4.51,9.71,5.51,14.52,9.47,24.83,24.89,27.57,41.27,2.51,14.03-.73,28.44-8.25,40.04-1.15,1.72-2.69,3.32-4.18,5.11-.86.94-1.86,1.79-2.82,2.73-.49.46-.98.92-1.48,1.39-.54.41-1.09.83-1.64,1.25-1.13.8-2.16,1.79-3.42,2.48-1.22.74-2.46,1.49-3.7,2.25-1.32.62-2.65,1.24-3.98,1.87-1.33.65-2.78,1-4.16,1.51-5.64,1.78-11.59,2.43-17.11,2.06-2.73-.42-5.41-.64-7.83-1.45-2.49-.54-4.67-1.56-6.72-2.39-4.01-1.89-7.16-3.91-9.31-5.39-1.04-.78-1.85-1.4-2.41-1.82-.56-.42-.82-.68-.82-.68l-.73-.63c-12.16-10.19-19.23-26.15-18.44-41.97.36-7.89,2.71-15.68,6.95-22.33.27-.43.55-.85.83-1.27,1.47-1.76,3.05-3.43,4.76-4.97,10-9.07,22.08-12.56,34.04-9.8,15.08,3.01,30.6,16.4,30.46,33.58-.42,16.45-11.8,26.28-22.19,28.46-2.39.5-4.73.64-6.98.44-2.28-.36-4.6-1-6.79-2.02-2.64-1.2-5.11-2.76-7.11-4.61-2.49-2.46-4.65-5.56-6.38-9.26l-.06.03c-.16-.5-.29-.96-.38-1.37-.27-1.21-.35-1.94-.35-1.94l-.05-.47c-1.01-7.79,2.99-15.98,9.99-18.89,1-.41,2.04-.72,3.1-.94,2.57-.16,5.3.31,7.92,1.45,5.03,2.18,8.36,6.25,8.89,10.86.3,2.8-.81,5.93-2.89,8.19-1.48,1.6-4.1,3.47-8.39,3.62-1.82-.27-3.53-1.04-4.74-1.84-1.36-.9-2.18-1.65-2.18-1.65l-.14-.12c-.5-.49-1.17-1.03-1.51-1.48-.44-.57-.84-1.19-1.22-1.82-.72-1.27-1.28-2.62-1.49-3.97-.11-.67-.12-1.33-.04-1.96.79-1.85,2.33-3.42,4.28-4.44,1.05-.59.13-2.18-.91-1.57-6.05,3.14-7.17,10.09-3.5,15.22,2.51,4.26,6.4,6.23,10.39,6.43v.05c.17,0,.33,0,.5,0,5.64,0,9.11-2.45,11.04-4.55,2.62-2.84,4.01-6.83,3.63-10.43-.45-3.96-2.54-7.56-5.8-10.25l-.6-.58-.83-.6-1.06-.76c-.37-.23-.77-.41-1.16-.62l-1.19-.61-1.27-.45c-1.92-.73-4-1.03-6.14-1.16-1.12-.01-2.26.05-3.4.17l-1.7.33-.86.17-.83.29c-1.11.38-2.24.76-3.26,1.4-.52.29-1.07.56-1.58.89l-1.44,1.12c-.6.44-1.19.9-1.67,1.47-1.65,1.6-2.9,3.65-3.73,5.83l-.92,2.9c-.26,1.01-.43,2.04-.54,3.05-.2,2.03-.19,4.04.04,6.05.24,2.01.68,4.02,1.49,6.01.19.49.45,1,.69,1.48l.77,1.28c.52.84.99,1.73,1.63,2.5.85,1.15,1.77,2.23,2.87,3.12.45.38.87.77,1.33,1.12,2.04,1.41,4.14,2.66,6.38,3.54l1.72.67c.58.19,1.18.34,1.76.51,1.16.38,2.36.55,3.54.76.05,0,.1.01.15.02,1.88.48,3.87.75,5.98.75,1.79,0,3.66-.19,5.6-.6,11.45-2.4,23.98-13.18,24.45-31.19.05-6.46-1.91-12.41-5.16-17.58-2.8-4.89-6.71-9.18-11.29-12.44-6.85-5.05-14.7-7.32-22.58-7.31-10.72-.66-21.26,3.27-30.22,11.39-3.96,3.59-7.33,7.8-10.02,12.36-3.74,6.11-5.99,12.73-6.87,19.46,0,.07-.02.14-.03.21-.02.14-.03.28-.05.42-.26,2.1-.39,4.2-.36,6.28,0,.15,0,.31,0,.46,0,.06,0,.12,0,.18.29,18.8,10.66,37.3,28.04,46.87,5.42,3.14,11.39,4.9,17.5,5.48.05.01.11.03.16.04,1.88.33,3.8.45,5.69.55,2.4.06,4.8-.29,7.15-.44,2.33-.5,4.66-.81,6.89-1.51,2.29-.77,4.59-1.38,6.71-2.47l3.2-1.48,3.01-1.8c1.5-.89,2.92-1.87,4.29-2.92,18.12-12.6,27.84-35.68,23.87-57.86Z"/>
  <path class="st1" d="M151.2,91.84v.06s0-.05,0-.08c-12.31,40.3-65.46,59.46-98.27,31.28-1.36-1.17-2.72-2.33-4.09-3.48C16.69,92.67,17.77,35.39,57.29,15.74c0,0-19.45,3.24-35.79,18.21h0c-6.94,6.22-12.63,13.9-16.02,22.49-9.52,24.1-6.52,51.85,8.02,74.25l.06.08c15.51,22.21,38.8,34.61,63.42,34.61,5.71,0,11.5-.67,17.27-2.04,21.61-5.12,38.17-17.87,47.48-36.83,9.65-17.5,9.48-34.68,9.48-34.68Z"/>
  <path class="st0" d="M192.67,56.95v76.11l11.49,4.31v2.15h-27.28v-2.15l11.49-4.31V43.31l-8.62-2.15v-2.15h17.95c4.98,0,8.93,1.03,11.85,3.09,2.92,2.06,5.43,5.1,7.54,9.12l31.31,59.88,23.98-59.88c1.63-4.21,3.83-7.3,6.61-9.26,2.78-1.96,7.04-2.94,12.78-2.94h15.08v2.15l-8.62,2.15v91.9l8.62,2.15v2.15h-40.93v-2.15l8.62-2.15V56.95l-33.75,84.01h-4.31l-43.8-84.01Z"/>
  <path class="st0" d="M328.08,136.22c-4.6-3.64-6.89-8.28-6.89-13.93,0-3.73.81-7.42,2.44-11.06.67-1.72,1.53-3.3,2.58-4.74,3.92-.96,8.18-1.82,12.78-2.58,10.34-1.72,19.48-2.78,27.43-3.16v-4.31c0-10.63-1.29-17.95-3.88-21.97-2.58-4.02-6.56-6.03-11.92-6.03-2.01,0-3.73.24-5.17.72l-2.01.72v21.54l-1.87.43c-1.53.19-2.82.29-3.88.29-3.26,0-5.87-.98-7.83-2.94-1.96-1.96-2.94-4.57-2.94-7.83,0-4.4,2.23-8.14,6.68-11.2,4.45-3.06,11.08-4.6,19.89-4.6,7.47,0,13.91,1.32,19.31,3.95,5.41,2.64,9.52,6.27,12.35,10.91,2.82,4.64,4.24,9.98,4.24,16.01v38.77l8.62,2.15v2.15h-12.92c-5.74,0-10.2-1.77-13.35-5.31-1.34-1.44-2.39-3.25-3.16-5.46-1.34,2.39-2.92,4.55-4.74,6.46-4.31,4.31-9.67,6.46-16.08,6.46-8.52,0-15.08-1.82-19.67-5.46ZM363.12,130.9c1.05-1.44,2.15-3.35,3.3-5.74v-20.82c-4.4,0-8.62.24-12.64.72-2.97.38-4.98.62-6.03.72-.48,1.05-.96,2.49-1.44,4.31-.96,3.64-1.44,7.23-1.44,10.77,0,5.36.81,9.33,2.44,11.92,1.63,2.58,3.68,3.88,6.17,3.88,3.54,0,6.75-1.91,9.62-5.74Z"/>
  <path class="st0" d="M406.63,137.36l8.62-2.15v-63.18l-8.62-2.15v-2.15h12.92c5.65,0,10.1,1.82,13.35,5.46,1.24,1.44,2.3,3.21,3.16,5.31,1.44-2.1,3.21-4.02,5.31-5.74,4.79-3.83,10.15-5.74,16.08-5.74,5.07,0,8.88,1.17,11.42,3.52,2.54,2.35,3.81,5.72,3.81,10.12,0,3.26-.98,5.86-2.94,7.83-1.96,1.96-4.57,2.94-7.83,2.94-1.34,0-2.68-.09-4.02-.29l-1.72-.43v-20.1c-4.88,0-9.33,1.92-13.36,5.74-1.92,1.92-3.45,3.83-4.6,5.74v53.13l8.62,2.15v2.15h-40.21v-2.15Z"/>
  <path class="st0" d="M501.48,138.23c-4.64-2.3-8.21-5.46-10.7-9.48-2.49-4.02-3.73-8.57-3.73-13.64v-43.8h-10.05v-3.59h10.05v-7.18c0-8.62,4.31-12.92,12.92-12.92h10.05v20.1h20.1v3.59h-20.1v43.8c0,8.81.91,14.84,2.73,18.09,1.82,3.26,4.5,4.88,8.04,4.88s6.46-1.67,9.05-5.03c2.58-3.35,3.88-7.9,3.88-13.64h3.59c0,7.09-1.77,12.56-5.31,16.44-3.54,3.88-8.24,5.82-14.07,5.82-6.32,0-11.8-1.15-16.44-3.45Z"/>
  <path class="st0" d="M552.1,136.22c-4.6-3.64-6.89-8.28-6.89-13.93,0-3.73.81-7.42,2.44-11.06.67-1.72,1.53-3.3,2.58-4.74,3.92-.96,8.18-1.82,12.78-2.58,10.34-1.72,19.48-2.78,27.43-3.16v-4.31c0-10.63-1.29-17.95-3.88-21.97s-6.56-6.03-11.92-6.03c-2.01,0-3.73.24-5.17.72l-2.01.72v21.54l-1.87.43c-1.53.19-2.82.29-3.88.29-3.26,0-5.87-.98-7.83-2.94-1.96-1.96-2.94-4.57-2.94-7.83,0-4.4,2.23-8.14,6.68-11.2,4.45-3.06,11.08-4.6,19.89-4.6,7.47,0,13.91,1.32,19.31,3.95,5.41,2.64,9.52,6.27,12.35,10.91,2.82,4.64,4.24,9.98,4.24,16.01v38.77l8.62,2.15v2.15h-12.92c-5.74,0-10.2-1.77-13.35-5.31-1.34-1.44-2.39-3.25-3.16-5.46-1.34,2.39-2.92,4.55-4.74,6.46-4.31,4.31-9.67,6.46-16.08,6.46-8.52,0-15.08-1.82-19.67-5.46ZM587.13,130.9c1.05-1.44,2.15-3.35,3.3-5.74v-20.82c-4.4,0-8.62.24-12.64.72-2.97.38-4.98.62-6.03.72-.48,1.05-.96,2.49-1.44,4.31-.96,3.64-1.44,7.23-1.44,10.77,0,5.36.81,9.33,2.44,11.92,1.63,2.58,3.68,3.88,6.17,3.88,3.54,0,6.75-1.91,9.62-5.74Z"/>
  <g>
    <path class="st0" d="M660.58,135.93l53.28-93.34h-37.48c0,5.84-1.58,11.44-4.74,16.8-1.34,2.2-2.87,4.02-4.6,5.46h-4.31v-25.85h77.54v3.59l-53.13,93.34h38.77c0-6.03,1.53-11.63,4.6-16.8,1.34-2.2,2.92-4.02,4.74-5.46h4.31v25.85h-78.98v-3.59Z"/>
    <path class="st0" d="M761.89,131.55c-6.75-6.75-10.12-16.06-10.12-27.93s3.37-21.18,10.12-27.93c6.75-6.75,16.06-10.12,27.93-10.12s21.18,3.37,27.93,10.12c6.75,6.75,10.12,16.06,10.12,27.93s-3.37,21.18-10.12,27.93c-6.75,6.75-16.06,10.12-27.93,10.12s-21.18-3.37-27.93-10.12ZM799.51,130.76c2.63-5.36,3.95-14.41,3.95-27.14s-1.32-21.78-3.95-27.14c-2.63-5.36-5.87-8.04-9.69-8.04s-7.06,2.68-9.69,8.04c-2.63,5.36-3.95,14.41-3.95,27.14s1.31,21.78,3.95,27.14c2.63,5.36,5.86,8.04,9.69,8.04s7.06-2.68,9.69-8.04Z"/>
    <path class="st0" d="M839.36,137.36l8.62-2.15V43.31l-8.62-2.15v-2.15h18.67c8.62,0,12.92,4.31,12.92,12.92v83.29l8.62,2.15v2.15h-40.21v-2.15Z"/>
    <path class="st0" d="M896.51,136.22c-4.6-3.64-6.89-8.28-6.89-13.93,0-3.73.81-7.42,2.44-11.06.67-1.72,1.53-3.3,2.58-4.74,3.92-.96,8.18-1.82,12.78-2.58,10.34-1.72,19.48-2.78,27.43-3.16v-4.31c0-10.63-1.29-17.95-3.88-21.97s-6.56-6.03-11.92-6.03c-2.01,0-3.73.24-5.17.72l-2.01.72v21.54l-1.87.43c-1.53.19-2.82.29-3.88.29-3.26,0-5.87-.98-7.83-2.94-1.96-1.96-2.94-4.57-2.94-7.83,0-4.4,2.23-8.14,6.68-11.2,4.45-3.06,11.08-4.6,19.89-4.6,7.47,0,13.91,1.32,19.31,3.95,5.41,2.64,9.52,6.27,12.35,10.91,2.82,4.64,4.24,9.98,4.24,16.01v38.77l8.62,2.15v2.15h-12.92c-5.74,0-10.2-1.77-13.35-5.31-1.34-1.44-2.39-3.25-3.16-5.46-1.34,2.39-2.92,4.55-4.74,6.46-4.31,4.31-9.67,6.46-16.08,6.46-8.52,0-15.08-1.82-19.67-5.46ZM931.55,130.9c1.05-1.44,2.15-3.35,3.3-5.74v-20.82c-4.4,0-8.62.24-12.64.72-2.97.38-4.98.62-6.03.72-.48,1.05-.96,2.49-1.44,4.31-.96,3.64-1.44,7.23-1.44,10.77,0,5.36.81,9.33,2.44,11.92,1.63,2.58,3.68,3.88,6.17,3.88,3.54,0,6.75-1.91,9.62-5.74Z"/>
  </g>
</svg>